<svg version="1.1" id="Layer_1" xmlns="http://www.w3.org/2000/svg" xmlns:xlink="http://www.w3.org/1999/xlink" x="0px" y="0px"
	 width="100%" viewBox="0 0 896 896" enable-background="new 0 0 896 896" xml:space="preserve">
<path fill="#000000" opacity="1.000000" stroke="none" 
	d="
M288.476807,483.552612 
	C264.487793,494.258362 240.837692,504.796936 217.205963,515.376465 
	C197.044250,524.402588 176.905655,533.480225 156.751450,542.523193 
	C153.917953,543.794556 151.936386,543.406006 150.252884,540.287842 
	C144.253174,529.175537 142.872894,517.187622 143.888763,504.989594 
	C145.542282,485.134918 154.683075,469.343140 171.299149,458.062714 
	C185.355469,448.520020 201.070084,447.184753 217.251648,449.287170 
	C224.511154,450.230347 231.846390,450.867279 239.069855,451.289001 
	C248.201294,451.822174 257.191711,453.368683 266.310669,453.930817 
	C282.201843,454.910461 298.037842,456.853882 313.876221,458.583252 
	C319.178162,459.162170 324.549408,458.264923 329.799530,459.598358 
	C331.552032,460.043457 333.474060,460.040649 334.526306,462.964569 
	C319.266876,469.788727 304.045258,476.595947 288.476807,483.552612 
z"/>
<path fill="#000000" opacity="1.000000" stroke="none" 
	d="
M293.375122,570.352905 
	C278.586029,586.832886 264.082886,603.088135 249.516068,619.286255 
	C239.729965,630.168335 229.802750,640.923767 220.050354,651.835693 
	C217.272446,654.943909 214.906586,655.466980 211.765030,652.293457 
	C193.315155,633.656250 184.259079,611.762451 191.271194,585.749756 
	C196.385071,566.778931 208.718613,552.776123 227.603302,546.164429 
	C257.910461,535.553833 288.484436,525.706299 318.928894,515.486389 
	C328.028687,512.431763 337.079468,509.230194 346.133484,506.041443 
	C347.270844,505.640900 348.285767,505.090515 350.223419,507.069855 
	C331.404053,528.032410 312.518982,549.068115 293.375122,570.352905 
z"/>
<path fill="#000000" opacity="1.000000" stroke="none" 
	d="
M622.573364,321.576385 
	C592.474915,339.552368 562.683533,357.329468 531.835144,375.184479 
	C531.478516,369.902466 534.230591,367.530396 535.761108,364.842896 
	C557.789734,326.161255 579.976501,287.569641 602.163208,248.978165 
	C610.686829,234.152176 619.427795,219.449509 627.798828,204.538574 
	C629.989014,200.637268 632.189148,200.279495 635.693787,202.427261 
	C652.492615,212.722092 663.157715,227.391815 668.431763,246.405228 
	C675.584351,272.191223 661.135559,300.184479 638.870911,312.171967 
	C633.458069,315.086304 628.215088,318.316315 622.573364,321.576385 
z"/>
<path fill="#000000" opacity="1.000000" stroke="none" 
	d="
M733.269043,345.895203 
	C732.489746,367.661041 717.614563,388.662964 696.347656,397.210083 
	C688.076599,400.534241 679.394470,401.593109 670.583008,402.371124 
	C662.538147,403.081482 654.568665,404.607300 646.544067,405.596436 
	C639.295837,406.489899 632.015320,407.118317 624.753906,407.908295 
	C611.242065,409.378326 597.713684,410.661713 584.266418,412.739563 
	C576.230408,413.981201 568.080566,414.484436 559.984192,415.341095 
	C558.567566,415.490936 556.818176,416.501923 556.129333,414.463562 
	C555.519348,412.658264 557.208984,411.897308 558.400452,411.027191 
	C570.495972,402.194489 582.582825,393.349915 594.690796,384.534210 
	C621.190491,365.240051 647.698914,345.957855 674.208069,326.676605 
	C687.125854,317.280945 700.096191,307.956635 712.944153,298.466522 
	C715.895386,296.286560 718.061523,296.549835 720.072388,299.444702 
	C725.717590,307.571808 729.600220,316.311188 731.641479,326.155060 
	C732.982422,332.621613 733.161499,338.960236 733.269043,345.895203 
z"/>
<path fill="#000000" opacity="1.000000" stroke="none" 
	d="
M570.255066,465.856720 
	C567.792542,465.159027 565.712219,464.587646 563.654785,463.943054 
	C562.364075,463.538696 561.008667,463.027252 561.125977,461.332916 
	C561.224060,459.916687 562.431091,459.468109 563.590149,459.239594 
	C569.757141,458.023834 575.950562,456.937988 582.104126,455.659180 
	C591.639832,453.677460 601.148254,451.564453 610.672852,449.528778 
	C622.958435,446.903015 635.253479,444.321930 647.534973,441.677368 
	C656.880554,439.664948 666.201294,437.536316 675.551147,435.544495 
	C688.292480,432.830292 701.065491,430.263947 713.798035,427.509918 
	C726.068176,424.855835 738.317383,422.100800 750.548340,419.271423 
	C755.140198,418.209167 757.337769,419.428131 758.118591,423.801331 
	C761.892395,444.937988 757.000610,463.981842 744.173218,481.037811 
	C730.486206,499.236755 702.516785,507.153442 680.815430,499.989655 
	C657.539001,492.305908 633.991333,485.443756 610.560547,478.227783 
	C597.257568,474.130920 583.951538,470.043640 570.255066,465.856720 
z"/>
<path fill="#000000" opacity="1.000000" stroke="none" 
	d="
M348.345032,569.319336 
	C359.297455,560.250610 368.547211,549.746521 379.912292,541.128296 
	C382.695251,545.859497 379.614990,549.269653 378.598267,552.540161 
	C370.288422,579.270325 361.639404,605.895935 352.960480,632.510010 
	C346.642822,651.883179 340.047943,671.165833 333.721924,690.536316 
	C329.913940,702.196289 326.443085,713.965881 322.706512,725.649658 
	C320.616974,732.183472 320.311584,732.627625 313.968750,730.102112 
	C292.450073,721.533936 276.571381,707.221375 270.587433,684.116699 
	C264.595520,660.981262 270.868622,641.177795 288.381927,624.931396 
	C308.281464,606.471375 328.181885,588.012390 348.345032,569.319336 
z"/>
<path fill="#000000" opacity="1.000000" stroke="none" 
	d="
M730.119995,543.719971 
	C733.601074,544.360779 736.694885,544.883545 739.729858,545.641296 
	C742.645142,546.369263 742.529053,548.892151 741.977112,550.925659 
	C735.131775,576.146240 720.655518,595.017700 695.033386,602.731995 
	C672.285522,609.580872 652.796509,601.859009 635.565613,586.392700 
	C615.766785,568.621277 595.551331,551.313904 575.526062,533.794495 
	C566.765076,526.129944 558.011230,518.457214 549.294983,510.741974 
	C547.955933,509.556671 546.330933,508.510590 545.779785,505.146088 
	C607.453979,517.860046 668.659302,530.393127 730.119995,543.719971 
z"/>
<path fill="#000000" opacity="1.000000" stroke="none" 
	d="
M243.000366,416.260498 
	C210.020706,416.274200 177.541031,416.289734 145.061340,416.285645 
	C138.962616,416.284882 138.452499,415.931396 138.677399,409.702545 
	C139.715927,380.935852 157.824005,351.045471 191.930496,345.127991 
	C205.645004,342.748505 218.967926,345.755341 231.307831,352.709534 
	C264.322876,371.315155 297.445709,389.729553 330.458496,408.339111 
	C333.566376,410.091034 337.886993,410.557556 339.589874,416.255585 
	C307.154694,416.255585 275.327515,416.255585 243.000366,416.260498 
z"/>
<path fill="#000000" opacity="1.000000" stroke="none" 
	d="
M494.118530,328.421417 
	C495.739960,316.626801 496.272705,305.138397 497.945770,293.846161 
	C500.016907,279.867096 500.036407,265.731354 502.334839,251.760422 
	C503.584869,244.161987 503.926239,236.285126 504.736572,228.538895 
	C506.307129,213.525528 508.224030,198.535614 509.276855,183.485565 
	C509.926117,174.205063 512.040222,165.106567 511.922363,155.728729 
	C511.826233,148.085068 514.083130,146.302246 521.343079,147.741165 
	C542.728943,151.979874 560.487732,162.172745 571.132690,181.714966 
	C582.514404,202.609909 581.491699,223.867310 568.082275,243.472778 
	C549.015320,271.349945 529.064636,298.622650 509.489716,326.152374 
	C505.826996,331.303497 502.205078,336.484833 498.460205,341.575684 
	C497.249084,343.222107 496.326843,345.405060 493.150665,345.517700 
	C492.072235,339.847717 494.687164,334.391785 494.118530,328.421417 
z"/>
<path fill="#000000" opacity="1.000000" stroke="none" 
	d="
M444.288452,739.726929 
	C444.540863,745.315186 446.910004,750.142578 446.269592,755.437927 
	C445.945129,758.120667 445.152130,759.817078 442.219086,760.108337 
	C416.822418,762.630798 387.411896,750.816895 374.737549,725.835388 
	C365.885925,708.388672 366.235687,690.686523 374.082642,672.793823 
	C386.202393,645.158264 397.938354,617.354675 409.901306,589.650024 
	C414.088196,579.953735 418.464752,570.339294 422.955505,560.235718 
	C426.078369,562.766479 425.949829,566.023315 426.160980,568.679199 
	C427.292114,582.905579 429.204224,597.050964 430.506653,611.260010 
	C431.638641,623.609924 433.458862,635.926941 434.663422,648.295776 
	C435.515411,657.044373 435.898834,665.879272 437.429565,674.509216 
	C438.879730,682.684937 438.462158,691.044678 440.485931,699.117554 
	C441.748138,704.152527 441.039276,709.355713 441.872009,714.492310 
	C443.197174,722.666809 443.528656,731.002380 444.288452,739.726929 
z"/>
<path fill="#000000" opacity="1.000000" stroke="none" 
	d="
M470.575378,586.502075 
	C470.353699,579.420898 470.053436,572.782166 469.902771,566.139954 
	C469.864349,564.444946 469.171936,562.071045 471.611298,561.516296 
	C473.743103,561.031494 474.133667,563.294678 474.926361,564.651917 
	C492.359436,594.500977 509.787720,624.352844 527.178894,654.226318 
	C541.393738,678.643555 555.480042,703.136230 569.823730,727.477356 
	C572.239075,731.576172 571.951843,733.911987 567.629639,736.144592 
	C557.913818,741.163452 547.850891,744.048523 536.766235,744.427795 
	C521.983337,744.933533 508.316956,742.341248 496.299500,733.422241 
	C483.530029,723.945251 475.425812,711.550720 472.690430,695.648987 
	C469.786682,678.768677 471.333557,661.787354 470.998047,644.854370 
	C470.615662,625.555298 470.681396,606.247314 470.575378,586.502075 
z"/>
<path fill="#000000" opacity="1.000000" stroke="none" 
	d="
M402.090576,200.855652 
	C396.370605,183.858643 390.824738,167.220062 385.300110,150.574432 
	C384.498993,148.160614 385.059509,146.612106 387.735687,145.565506 
	C399.573242,140.936050 411.587097,140.951019 423.919800,143.134995 
	C437.116180,145.471909 448.654022,150.894638 457.867371,160.581863 
	C472.751312,176.231339 477.275146,194.906326 473.024139,215.901199 
	C470.033325,230.672134 467.099243,245.454590 464.096252,260.223053 
	C460.629242,277.273499 457.083191,294.307922 453.634155,311.362000 
	C452.030365,319.292023 450.574768,327.251984 449.023773,335.345520 
	C445.867950,335.741791 445.372986,333.800415 444.671173,331.617737 
	C435.948456,304.490387 427.320038,277.330414 418.289581,250.305069 
	C412.833496,233.976761 407.055725,217.758072 402.090576,200.855652 
z"/>
<path fill="#000000" opacity="1.000000" stroke="none" 
	d="
M375.689026,227.429565 
	C379.325226,243.798325 382.661041,259.806793 386.469360,275.702087 
	C391.394684,296.259552 396.279144,316.821014 400.414673,337.554688 
	C400.955872,340.267883 403.625214,342.855560 400.954620,345.823395 
	C398.396545,345.460602 397.316376,343.441864 395.907043,341.888214 
	C376.454041,320.443054 357.020477,298.980316 337.574280,277.529022 
	C314.774536,252.378372 291.993042,227.211075 269.123199,202.124329 
	C266.815155,199.592575 266.738647,197.804565 269.324524,195.503906 
	C291.299591,175.952805 327.031799,168.559296 353.853760,190.046661 
	C365.719177,199.552155 372.878235,212.031616 375.689026,227.429565 
z"/>
<path fill="#000000" opacity="1.000000" stroke="none" 
	d="
M518.723083,543.117676 
	C534.854675,554.658142 550.705444,565.964294 566.510559,577.333801 
	C586.373657,591.622437 606.199890,605.962341 626.041016,620.281433 
	C641.837341,631.681458 657.575867,643.163086 673.475159,654.417664 
	C676.668030,656.677673 677.155884,658.560730 674.827393,661.658081 
	C663.179688,677.151367 647.911377,686.606079 628.705322,689.519531 
	C603.919312,693.279358 584.864929,683.668030 570.648499,663.825562 
	C565.125488,656.116882 562.027344,646.981262 558.018433,638.405029 
	C549.512207,620.207764 541.144287,601.945923 532.694397,583.722351 
	C526.896729,571.218567 521.045349,558.739624 515.256226,546.231873 
	C514.785583,545.214966 514.611572,544.060852 514.342834,543.121033 
	C515.851074,541.211975 517.136597,542.059387 518.723083,543.117676 
z"/>
<path fill="#000000" opacity="1.000000" stroke="none" 
	d="
M182.079315,287.222443 
	C192.040268,268.500092 206.693924,255.407578 226.872665,250.409210 
	C248.514343,245.048431 271.998352,250.986832 287.461243,271.120514 
	C312.076599,303.171295 336.086884,335.686890 360.327301,368.025208 
	C361.394318,369.448639 362.838348,370.729065 362.886902,372.775482 
	C361.668213,374.716431 360.234528,374.030334 358.610321,373.308136 
	C319.944305,356.115662 281.271210,338.938995 242.580490,321.802216 
	C223.467163,313.336578 204.301544,304.988983 185.190643,296.517914 
	C179.306549,293.909760 179.352676,293.801178 182.079315,287.222443 
z"/>
</svg>